# xmcd
#
# Track frame offsets: 
#        150
#        19125
#        35666
#        53162
#        70888
#        85415
#        107717
#        127927
#        146015
#        168373
#        188481
#
# Disc length: 2765 seconds
#
# Revision: 3
# Processed by: cddbd v1.5.2PL0 Copyright (c) Steve Scherf et al.
# Submitted via: ExactAudioCopy v1.0b3
#
DISCID=920acb0b
DTITLE=Roy Roberts - Daylight With A Flashlight
DYEAR=2003
DGENRE=Blues
TTITLE0=Touched By An Angel
TTITLE1=Just One More Blues Song
TTITLE2=I Want To Love You
TTITLE3=Daylight With A Flashlight
TTITLE4=Sometimes You Love Me
TTITLE5=Everytime I Turn Around
TTITLE6=Your Troubling Mind
TTITLE7=I Slipped
TTITLE8=No More Tears
TTITLE9=Anniebell
TTITLE10=Raise A Little Hell
EXTD=
EXTT0=
EXTT1=
EXTT2=
EXTT3=
EXTT4=
EXTT5=
EXTT6=
EXTT7=
EXTT8=
EXTT9=
EXTT10=
PLAYORDER=
